# xmcd
#
# Track frame offsets: 
#        150
#        13519
#        27197
#        40633
#        57752
#        69589
#        81364
#        98662
#        112304
#        127119
#        143546
#        154592
#
# Disc length: 2221 seconds
#
# Revision: 0
# Processed by: cddbd v1.5PL3 Copyright (c) Steve Scherf et al.
# Submitted via: ExactAudioCopy v0.95a1
#
DISCID=9708ab0c
DTITLE=Dale Watson - Dreamland
DYEAR=2004
DGENRE=Country
TTITLE0=Honky Tonkers Don't Cry
TTITLE1=Ain't A Cow in Texas
TTITLE2=Love at First Sight
TTITLE3=I Wish You'd COme Around
TTITLE4=California Wine
TTITLE5=Never Ever
TTITLE6=Dreamland
TTITLE7=Fox on the Run
TTITLE8=Way Down Texas Way
TTITLE9=She Don't Care
TTITLE10=I Don't Rock No Cradle
TTITLE11=Pretty Girls
EXTD=
EXTT0=
EXTT1=
EXTT2=
EXTT3=
EXTT4=
EXTT5=
EXTT6=
EXTT7=
EXTT8=
EXTT9=
EXTT10=
EXTT11=
PLAYORDER=
